<svg width="22" height="20" viewBox="0 0 22 20" fill="none" xmlns="http://www.w3.org/2000/svg">
<rect x="0.5" y="2.5" width="21" height="15" rx="2.5" fill="white" stroke="black"/>
<path d="M10.0857 9.85C10.0857 9.43 10.1787 9.067 10.3647 8.761C10.5567 8.455 10.8057 8.221 11.1117 8.059C11.4177 7.891 11.7507 7.807 12.1107 7.807C12.4107 7.807 12.6777 7.846 12.9117 7.924C13.1457 8.002 13.3557 8.107 13.5417 8.239C13.7337 8.371 13.8987 8.515 14.0367 8.671V7.222C13.7787 7.018 13.4967 6.859 13.1907 6.745C12.8907 6.631 12.5097 6.574 12.0477 6.574C11.5677 6.574 11.1207 6.652 10.7067 6.808C10.2987 6.964 9.9417 7.189 9.6357 7.483C9.3357 7.777 9.1017 8.125 8.9337 8.527C8.7717 8.923 8.6907 9.364 8.6907 9.85C8.6907 10.336 8.7717 10.78 8.9337 11.182C9.1017 11.578 9.3357 11.923 9.6357 12.217C9.9417 12.511 10.2987 12.736 10.7067 12.892C11.1207 13.048 11.5677 13.126 12.0477 13.126C12.5097 13.126 12.8907 13.069 13.1907 12.955C13.4967 12.841 13.7787 12.682 14.0367 12.478V11.029C13.8987 11.185 13.7337 11.329 13.5417 11.461C13.3557 11.593 13.1457 11.698 12.9117 11.776C12.6777 11.854 12.4107 11.893 12.1107 11.893C11.7507 11.893 11.4177 11.812 11.1117 11.65C10.8057 11.482 10.5567 11.245 10.3647 10.939C10.1787 10.627 10.0857 10.264 10.0857 9.85Z" fill="black"/>
</svg>
