<svg width="238" height="158" viewBox="0 0 238 158" fill="none" xmlns="http://www.w3.org/2000/svg">
<path d="M68.2275 0L85.1451 31.3285L85.1524 31.3151L102.07 62.6435L102.077 62.6301L118.995 93.9586L119.002 93.9452L119.009 93.9589L135.927 62.6301L135.934 62.6439L152.852 31.3151L152.859 31.3288L169.777 0L186.877 31.6669L169.777 63.3338L169.77 63.3204L152.852 94.6489L152.845 94.6355L135.927 125.964L135.92 125.951L119.002 157.279L102.085 125.95L102.077 125.964L85.1596 94.6352L85.1524 94.6489L68.2347 63.3201L68.2275 63.3338L34.0251 126.668L34.0178 126.654L17.1002 157.983L0 126.316L17.1002 94.6489L17.1074 94.6627L68.2275 0Z" fill="#6A1818"/>
<path d="M203.977 62.9824L238 125.964L220.899 157.631L203.981 126.303L203.975 126.316L186.738 94.3899L169.689 125.964L169.681 125.951L152.764 157.279L144.213 141.446L161.313 109.779L161.321 109.793L178.205 78.5249L178.2 78.5156L178.238 78.4641L195.593 47.5008L203.977 62.9824Z" fill="#6A1818"/>
</svg>
