<svg width="274" height="143" viewBox="0 0 274 143" fill="none" xmlns="http://www.w3.org/2000/svg">
<path d="M2.47742 133.36L3.19742 130.6H2.53742L1.33742 133.36H2.47742ZM4.87742 133.36L5.59742 130.6H4.93742L3.73742 133.36H4.87742ZM12.2047 130.6L10.0327 134.488L7.87273 130.6H6.73273L9.52873 135.388V139H10.5487V135.376L13.3447 130.6H12.2047ZM14.8416 134.8C14.8416 134.168 14.9776 133.604 15.2496 133.108C15.5296 132.612 15.9096 132.22 16.3896 131.932C16.8696 131.644 17.4136 131.5 18.0216 131.5C18.6376 131.5 19.1816 131.644 19.6536 131.932C20.1336 132.22 20.5096 132.612 20.7816 133.108C21.0616 133.604 21.2016 134.168 21.2016 134.8C21.2016 135.432 21.0616 135.996 20.7816 136.492C20.5096 136.988 20.1336 137.38 19.6536 137.668C19.1816 137.956 18.6376 138.1 18.0216 138.1C17.4136 138.1 16.8696 137.956 16.3896 137.668C15.9096 137.38 15.5296 136.988 15.2496 136.492C14.9776 135.996 14.8416 135.432 14.8416 134.8ZM13.7616 134.8C13.7616 135.408 13.8656 135.976 14.0736 136.504C14.2896 137.032 14.5896 137.492 14.9736 137.884C15.3576 138.268 15.8096 138.572 16.3296 138.796C16.8496 139.012 17.4136 139.12 18.0216 139.12C18.6376 139.12 19.2016 139.012 19.7136 138.796C20.2336 138.572 20.6856 138.268 21.0696 137.884C21.4536 137.492 21.7496 137.032 21.9576 136.504C22.1736 135.976 22.2816 135.408 22.2816 134.8C22.2816 134.184 22.1736 133.616 21.9576 133.096C21.7496 132.568 21.4536 132.112 21.0696 131.728C20.6856 131.336 20.2336 131.032 19.7136 130.816C19.2016 130.592 18.6376 130.48 18.0216 130.48C17.4136 130.48 16.8496 130.592 16.3296 130.816C15.8096 131.032 15.3576 131.336 14.9736 131.728C14.5896 132.112 14.2896 132.568 14.0736 133.096C13.8656 133.616 13.7616 134.184 13.7616 134.8ZM24.1421 130.6V136.24C24.1421 136.656 24.2061 137.04 24.3341 137.392C24.4701 137.744 24.6621 138.048 24.9101 138.304C25.1661 138.56 25.4701 138.76 25.8221 138.904C26.1741 139.048 26.5661 139.12 26.9981 139.12C27.4301 139.12 27.8221 139.048 28.1741 138.904C28.5261 138.76 28.8261 138.56 29.0741 138.304C29.3301 138.048 29.5221 137.744 29.6501 137.392C29.7861 137.04 29.8541 136.656 29.8541 136.24V130.6H28.8341V136.24C28.8341 136.816 28.6781 137.28 28.3661 137.632C28.0541 137.984 27.5981 138.16 26.9981 138.16C26.3981 138.16 25.9421 137.984 25.6301 137.632C25.3181 137.28 25.1621 136.816 25.1621 136.24V130.6H24.1421ZM36.8715 134.8C36.8715 134.144 37.0155 133.572 37.3035 133.084C37.5995 132.588 37.9835 132.2 38.4555 131.92C38.9275 131.64 39.4395 131.5 39.9915 131.5C40.3915 131.5 40.7555 131.552 41.0835 131.656C41.4195 131.76 41.7235 131.908 41.9955 132.1C42.2675 132.284 42.4995 132.5 42.6915 132.748V131.404C42.3395 131.092 41.9555 130.86 41.5395 130.708C41.1235 130.556 40.6075 130.48 39.9915 130.48C39.4075 130.48 38.8595 130.588 38.3475 130.804C37.8435 131.012 37.3995 131.312 37.0155 131.704C36.6315 132.088 36.3315 132.544 36.1155 133.072C35.8995 133.6 35.7915 134.176 35.7915 134.8C35.7915 135.424 35.8995 136 36.1155 136.528C36.3315 137.056 36.6315 137.516 37.0155 137.908C37.3995 138.292 37.8435 138.592 38.3475 138.808C38.8595 139.016 39.4075 139.12 39.9915 139.12C40.6075 139.12 41.1235 139.044 41.5395 138.892C41.9555 138.74 42.3395 138.508 42.6915 138.196V136.852C42.4995 137.1 42.2675 137.32 41.9955 137.512C41.7235 137.696 41.4195 137.84 41.0835 137.944C40.7555 138.048 40.3915 138.1 39.9915 138.1C39.4395 138.1 38.9275 137.96 38.4555 137.68C37.9835 137.4 37.5995 137.012 37.3035 136.516C37.0155 136.02 36.8715 135.448 36.8715 134.8ZM45.5945 136.48H50.0345L49.6745 135.52H45.9545L45.5945 136.48ZM47.7905 132.496L49.2305 135.88L49.3265 136.12L50.5505 139H51.6905L47.7905 130.18L43.8905 139H45.0305L46.2785 136.048L46.3745 135.832L47.7905 132.496ZM59.5524 130.6V136.852L53.1924 130.18V139H54.2124V132.748L60.5724 139.42V130.6H59.5524ZM67.8588 136.48H72.2988L71.9388 135.52H68.2188L67.8588 136.48ZM70.0548 132.496L71.4948 135.88L71.5908 136.12L72.8148 139H73.9548L70.0548 130.18L66.1548 139H67.2948L68.5428 136.048L68.6388 135.832L70.0548 132.496ZM75.4566 130.6V139H79.7766V138.04H76.4766V130.6H75.4566ZM87.6197 136.78L85.1237 130.18L82.6757 136.78L80.4437 130.6H79.3037L82.6037 139.42L85.1237 132.892L87.6437 139.42L90.9437 130.6H89.8037L87.6197 136.78ZM92.1152 136.48H96.5552L96.1952 135.52H92.4752L92.1152 136.48ZM94.3112 132.496L95.7512 135.88L95.8472 136.12L97.0712 139H98.2112L94.3112 130.18L90.4112 139H91.5512L92.7992 136.048L92.8952 135.832L94.3112 132.496ZM103.441 130.6L101.269 134.488L99.1093 130.6H97.9693L100.765 135.388V139H101.785V135.376L104.581 130.6H103.441ZM106.388 136.456L105.572 137.008C105.756 137.376 105.992 137.724 106.28 138.052C106.576 138.372 106.916 138.632 107.3 138.832C107.692 139.024 108.116 139.12 108.572 139.12C108.908 139.12 109.228 139.064 109.532 138.952C109.844 138.84 110.12 138.68 110.36 138.472C110.608 138.264 110.8 138.012 110.936 137.716C111.08 137.42 111.152 137.088 111.152 136.72C111.152 136.336 111.084 136.008 110.948 135.736C110.812 135.456 110.636 135.22 110.42 135.028C110.212 134.828 109.984 134.664 109.736 134.536C109.488 134.408 109.252 134.304 109.028 134.224C108.54 134.056 108.152 133.888 107.864 133.72C107.584 133.544 107.384 133.36 107.264 133.168C107.144 132.968 107.084 132.752 107.084 132.52C107.084 132.248 107.188 132.004 107.396 131.788C107.604 131.564 107.936 131.452 108.392 131.452C108.72 131.452 108.996 131.516 109.22 131.644C109.452 131.772 109.648 131.936 109.808 132.136C109.968 132.336 110.1 132.54 110.204 132.748L111.08 132.244C110.944 131.948 110.756 131.668 110.516 131.404C110.276 131.132 109.984 130.912 109.64 130.744C109.304 130.568 108.908 130.48 108.452 130.48C107.98 130.48 107.56 130.576 107.192 130.768C106.824 130.952 106.536 131.208 106.328 131.536C106.12 131.864 106.016 132.236 106.016 132.652C106.016 133.036 106.088 133.36 106.232 133.624C106.384 133.888 106.576 134.112 106.808 134.296C107.04 134.472 107.284 134.62 107.54 134.74C107.796 134.852 108.028 134.944 108.236 135.016C108.556 135.128 108.856 135.256 109.136 135.4C109.424 135.536 109.656 135.716 109.832 135.94C110.008 136.164 110.096 136.464 110.096 136.84C110.096 137.224 109.96 137.54 109.688 137.788C109.416 138.036 109.056 138.16 108.608 138.16C108.272 138.16 107.972 138.088 107.708 137.944C107.444 137.8 107.204 137.6 106.988 137.344C106.78 137.088 106.58 136.792 106.388 136.456ZM116.368 131.56H118.528V139H119.548V131.56H121.708V130.6H116.368V131.56ZM123.83 139H128.066V138.04H123.83V139ZM123.83 131.56H128.066V130.6H123.83V131.56ZM123.83 134.92H127.826V133.96H123.83V134.92ZM123.266 130.6V139H124.286V130.6H123.266ZM130.344 130.6V139H134.664V138.04H131.364V130.6H130.344ZM136.226 130.6V139H140.546V138.04H137.246V130.6H136.226ZM143.287 137.68L142.231 140.788L142.927 141.04L144.247 138.04L143.287 137.68ZM158.197 136.78L155.701 130.18L153.253 136.78L151.021 130.6H149.881L153.181 139.42L155.701 132.892L158.221 139.42L161.521 130.6H160.381L158.197 136.78ZM163.647 134.92H169.407V133.96H163.647V134.92ZM168.723 130.6V139H169.743V130.6H168.723ZM163.083 130.6V139H164.103V130.6H163.083ZM172.705 139H176.941V138.04H172.705V139ZM172.705 131.56H176.941V130.6H172.705V131.56ZM172.705 134.92H176.701V133.96H172.705V134.92ZM172.141 130.6V139H173.161V130.6H172.141ZM185.579 130.6V136.852L179.219 130.18V139H180.239V132.748L186.599 139.42V130.6H185.579ZM193.081 130.6V139H194.101V130.6H193.081ZM195.663 131.56H197.823V139H198.843V131.56H201.003V130.6H195.663V131.56ZM202.873 136.456L202.057 137.008C202.241 137.376 202.477 137.724 202.765 138.052C203.061 138.372 203.401 138.632 203.785 138.832C204.177 139.024 204.601 139.12 205.057 139.12C205.393 139.12 205.713 139.064 206.017 138.952C206.329 138.84 206.605 138.68 206.845 138.472C207.093 138.264 207.285 138.012 207.421 137.716C207.565 137.42 207.637 137.088 207.637 136.72C207.637 136.336 207.569 136.008 207.433 135.736C207.297 135.456 207.121 135.22 206.905 135.028C206.697 134.828 206.469 134.664 206.221 134.536C205.973 134.408 205.737 134.304 205.513 134.224C205.025 134.056 204.637 133.888 204.349 133.72C204.069 133.544 203.869 133.36 203.749 133.168C203.629 132.968 203.569 132.752 203.569 132.52C203.569 132.248 203.673 132.004 203.881 131.788C204.089 131.564 204.421 131.452 204.877 131.452C205.205 131.452 205.481 131.516 205.705 131.644C205.937 131.772 206.133 131.936 206.293 132.136C206.453 132.336 206.585 132.54 206.689 132.748L207.565 132.244C207.429 131.948 207.241 131.668 207.001 131.404C206.761 131.132 206.469 130.912 206.125 130.744C205.789 130.568 205.393 130.48 204.937 130.48C204.465 130.48 204.045 130.576 203.677 130.768C203.309 130.952 203.021 131.208 202.813 131.536C202.605 131.864 202.501 132.236 202.501 132.652C202.501 133.036 202.573 133.36 202.717 133.624C202.869 133.888 203.061 134.112 203.293 134.296C203.525 134.472 203.769 134.62 204.025 134.74C204.281 134.852 204.513 134.944 204.721 135.016C205.041 135.128 205.341 135.256 205.621 135.4C205.909 135.536 206.141 135.716 206.317 135.94C206.493 136.164 206.581 136.464 206.581 136.84C206.581 137.224 206.445 137.54 206.173 137.788C205.901 138.036 205.541 138.16 205.093 138.16C204.757 138.16 204.457 138.088 204.193 137.944C203.929 137.8 203.689 137.6 203.473 137.344C203.265 137.088 203.065 136.792 202.873 136.456ZM212.853 131.56H215.013V139H216.033V131.56H218.193V130.6H212.853V131.56ZM219.36 136.48H223.8L223.44 135.52H219.72L219.36 136.48ZM221.556 132.496L222.996 135.88L223.092 136.12L224.316 139H225.456L221.556 130.18L217.656 139H218.796L220.044 136.048L220.14 135.832L221.556 132.496ZM226.958 130.6V139H227.978V130.6H226.958ZM230.379 130.6V139H234.699V138.04H231.399V130.6H230.379ZM236.498 134.8C236.498 134.168 236.634 133.604 236.906 133.108C237.186 132.612 237.566 132.22 238.046 131.932C238.526 131.644 239.07 131.5 239.678 131.5C240.294 131.5 240.838 131.644 241.31 131.932C241.79 132.22 242.166 132.612 242.438 133.108C242.718 133.604 242.858 134.168 242.858 134.8C242.858 135.432 242.718 135.996 242.438 136.492C242.166 136.988 241.79 137.38 241.31 137.668C240.838 137.956 240.294 138.1 239.678 138.1C239.07 138.1 238.526 137.956 238.046 137.668C237.566 137.38 237.186 136.988 236.906 136.492C236.634 135.996 236.498 135.432 236.498 134.8ZM235.418 134.8C235.418 135.408 235.522 135.976 235.73 136.504C235.946 137.032 236.246 137.492 236.63 137.884C237.014 138.268 237.466 138.572 237.986 138.796C238.506 139.012 239.07 139.12 239.678 139.12C240.294 139.12 240.858 139.012 241.37 138.796C241.89 138.572 242.342 138.268 242.726 137.884C243.11 137.492 243.406 137.032 243.614 136.504C243.83 135.976 243.938 135.408 243.938 134.8C243.938 134.184 243.83 133.616 243.614 133.096C243.406 132.568 243.11 132.112 242.726 131.728C242.342 131.336 241.89 131.032 241.37 130.816C240.858 130.592 240.294 130.48 239.678 130.48C239.07 130.48 238.506 130.592 237.986 130.816C237.466 131.032 237.014 131.336 236.63 131.728C236.246 132.112 235.946 132.568 235.73 133.096C235.522 133.616 235.418 134.184 235.418 134.8ZM247.359 134.86L250.239 139H251.499L248.499 134.86H247.359ZM245.859 130.6V139H246.879V130.6H245.859ZM246.423 131.5H248.139C248.499 131.5 248.815 131.564 249.087 131.692C249.367 131.82 249.583 132.004 249.735 132.244C249.895 132.484 249.975 132.776 249.975 133.12C249.975 133.464 249.895 133.756 249.735 133.996C249.583 134.236 249.367 134.42 249.087 134.548C248.815 134.676 248.499 134.74 248.139 134.74H246.423V135.64H248.139C248.683 135.64 249.167 135.54 249.591 135.34C250.023 135.132 250.363 134.84 250.611 134.464C250.867 134.08 250.995 133.632 250.995 133.12C250.995 132.6 250.867 132.152 250.611 131.776C250.363 131.4 250.023 131.112 249.591 130.912C249.167 130.704 248.683 130.6 248.139 130.6H246.423V131.5ZM253.617 139H257.853V138.04H253.617V139ZM253.617 131.56H257.853V130.6H253.617V131.56ZM253.617 134.92H257.613V133.96H253.617V134.92ZM253.053 130.6V139H254.073V130.6H253.053ZM260.131 130.6V139H261.151V130.6H260.131ZM262.651 139C263.467 139 264.191 138.824 264.823 138.472C265.455 138.12 265.951 137.632 266.311 137.008C266.671 136.376 266.851 135.64 266.851 134.8C266.851 133.96 266.671 133.228 266.311 132.604C265.951 131.972 265.455 131.48 264.823 131.128C264.191 130.776 263.467 130.6 262.651 130.6H260.695V131.62H262.651C263.123 131.62 263.555 131.696 263.947 131.848C264.339 131.992 264.675 132.204 264.955 132.484C265.235 132.756 265.451 133.088 265.603 133.48C265.755 133.872 265.831 134.312 265.831 134.8C265.831 135.288 265.755 135.728 265.603 136.12C265.451 136.512 265.235 136.848 264.955 137.128C264.675 137.4 264.339 137.612 263.947 137.764C263.555 137.908 263.123 137.98 262.651 137.98H260.695V139H262.651ZM269.127 130.6L268.407 133.36H269.067L270.267 130.6H269.127ZM271.527 130.6L270.807 133.36H271.467L272.667 130.6H271.527Z" fill="white"/>
<path d="M119.004 15.8642L110.26 0L83.8412 47.9357L83.8375 47.9287L75 63.9644L83.8375 80L92.5806 64.1358L92.5844 64.1425L110.26 32.0713L110.264 32.0643L119.007 47.9287L119.011 47.9218L127.754 63.7862L127.758 63.7792L136.501 79.6437L145.244 63.7794L145.248 63.7862L153.991 47.9219L153.995 47.9287L162.738 32.0645L162.742 32.0713L171.579 16.0356L162.742 0L153.999 15.8644L153.995 15.8575L145.252 31.7219L145.248 31.7149L136.505 47.5793L136.501 47.5724L136.497 47.5792L127.754 31.7149L127.75 31.7217L119.007 15.8575L119.004 15.8642Z" fill="white"/>
<path d="M198 63.7864L180.416 31.8933L176.084 24.0537L167.115 39.733L167.095 39.7591L167.098 39.7638L158.372 55.5974L158.368 55.5904L149.53 71.6261L153.949 79.6439L162.692 63.7795L162.696 63.7864L171.508 47.7976L180.415 63.9646L180.419 63.9576L189.162 79.8221L198 63.7864Z" fill="white"/>
<path d="M65.9989 102.628L70.6849 110.57L75.3709 102.628L76.4489 112H79.1329L77.0209 95.83L70.6849 106.28L64.3709 95.83L62.2589 112H64.9429L65.9989 102.628ZM83.8584 96.6V112H86.4764V96.6H83.8584ZM92.117 96.6V112H94.779V96.6H92.117ZM100.499 96.6L93.987 103.882L100.763 112H103.953L97.133 103.816L103.623 96.6H100.499ZM109.544 112H117.31V109.712H109.544V112ZM109.544 98.888H117.31V96.6H109.544V98.888ZM109.544 104.872H116.87V102.628H109.544V104.872ZM107.938 96.6V112H110.49V96.6H107.938ZM129.962 98.998H134.01V112H136.628V98.998H140.698V96.6H129.962V98.998ZM144.445 108.04H152.585L152.079 105.84H144.929L144.445 108.04ZM148.471 100.956L150.913 106.676L150.979 107.314L153.069 112H155.995L148.471 95.742L140.947 112H143.873L146.007 107.182L146.051 106.61L148.471 100.956ZM159.986 96.6V112H162.604V96.6H159.986ZM168.245 96.6V112H176.957V109.668H170.841V96.6H168.245ZM182.24 104.3C182.24 103.244 182.46 102.305 182.9 101.484C183.355 100.648 183.978 99.9953 184.77 99.526C185.562 99.0567 186.464 98.822 187.476 98.822C188.518 98.822 189.427 99.0567 190.204 99.526C190.996 99.9953 191.612 100.648 192.052 101.484C192.492 102.305 192.712 103.244 192.712 104.3C192.712 105.356 192.485 106.302 192.03 107.138C191.59 107.959 190.974 108.605 190.182 109.074C189.405 109.543 188.503 109.778 187.476 109.778C186.464 109.778 185.562 109.543 184.77 109.074C183.978 108.605 183.355 107.959 182.9 107.138C182.46 106.302 182.24 105.356 182.24 104.3ZM179.49 104.3C179.49 105.444 179.688 106.507 180.084 107.49C180.48 108.473 181.03 109.323 181.734 110.042C182.453 110.761 183.304 111.325 184.286 111.736C185.269 112.132 186.332 112.33 187.476 112.33C188.635 112.33 189.698 112.132 190.666 111.736C191.649 111.325 192.5 110.761 193.218 110.042C193.937 109.323 194.494 108.473 194.89 107.49C195.286 106.507 195.484 105.444 195.484 104.3C195.484 103.141 195.286 102.078 194.89 101.11C194.494 100.142 193.93 99.306 193.196 98.602C192.478 97.8833 191.634 97.326 190.666 96.93C189.698 96.534 188.635 96.336 187.476 96.336C186.347 96.336 185.291 96.534 184.308 96.93C183.34 97.326 182.49 97.8833 181.756 98.602C181.038 99.306 180.48 100.142 180.084 101.11C179.688 102.078 179.49 103.141 179.49 104.3ZM203.377 104.652L208.283 112H211.407L206.193 104.652H203.377ZM200.209 96.6V112H202.805V96.6H200.209ZM201.749 98.844H204.851C205.438 98.844 205.951 98.9467 206.391 99.152C206.846 99.3573 207.198 99.6507 207.447 100.032C207.696 100.413 207.821 100.883 207.821 101.44C207.821 101.983 207.696 102.452 207.447 102.848C207.198 103.229 206.846 103.523 206.391 103.728C205.951 103.933 205.438 104.036 204.851 104.036H201.749V106.17H204.961C206.076 106.17 207.044 105.972 207.865 105.576C208.701 105.18 209.346 104.623 209.801 103.904C210.256 103.185 210.483 102.342 210.483 101.374C210.483 100.406 210.256 99.57 209.801 98.866C209.346 98.1473 208.701 97.59 207.865 97.194C207.044 96.798 206.076 96.6 204.961 96.6H201.749V98.844Z" fill="white"/>
</svg>
