<svg width="16" height="20" viewBox="0 0 16 20" fill="none" xmlns="http://www.w3.org/2000/svg">
<path fill-rule="evenodd" clip-rule="evenodd" d="M3.0256 6.92373V5.09416C3.0256 2.28375 5.28121 0 8.0705 0C10.8598 0 13.1154 2.28375 13.1154 5.09416V6.92373H14.5433C15.355 6.92373 16 7.58962 16 8.39572V18.528C16 19.3341 15.355 20 14.5433 20H1.45667C0.645036 20 0 19.3341 0 18.528V8.39572C0 7.58962 0.645036 6.92373 1.45667 6.92373H3.0256ZM1.82278 8.74191V18.1818H14.1772V8.74191H1.82278ZM11.2926 6.89571V5.09416C11.2926 3.28188 9.84696 1.81818 8.0705 1.81818C6.29404 1.81818 4.84838 3.28188 4.84838 5.09416V6.89571H11.2926Z" fill="#B5B5BE"/>
</svg>
