<svg width="310" height="42" viewBox="0 0 310 42" fill="none" xmlns="http://www.w3.org/2000/svg">
<path fill-rule="evenodd" clip-rule="evenodd" d="M208.982 27.8075L206.764 32.2722H200.274L212.78 7.6665L225.319 32.2722H218.795L216.567 27.8075H208.982ZM215.433 23.5412H210.142L212.78 17.6212L215.433 23.5412Z" fill="#393939"/>
<path d="M183.08 14.1156H189.605V32.2722H195.348V14.1156H201.907V9.12168H183.08V14.1156Z" fill="#393939"/>
<path d="M229.511 9.12168V32.2722H235.357V9.12168H229.511Z" fill="#393939"/>
<path d="M242.096 32.2722V9.12168H247.839V27.4768H257.389V32.2722H242.096Z" fill="#393939"/>
<path fill-rule="evenodd" clip-rule="evenodd" d="M259.361 20.697C259.361 22.4829 259.667 24.1255 260.279 25.6247C260.913 27.124 261.797 28.4248 262.929 29.5273C264.085 30.6297 265.444 31.4895 267.007 32.1069C268.571 32.7022 270.293 32.9998 272.173 32.9998C274.031 32.9998 275.741 32.7022 277.304 32.1069C278.868 31.4895 280.216 30.6297 281.349 29.5273C282.504 28.4248 283.388 27.124 283.999 25.6247C284.634 24.1255 284.951 22.4829 284.951 20.697C284.951 18.9111 284.634 17.2795 283.999 15.8023C283.365 14.325 282.47 13.0463 281.315 11.9659C280.159 10.8855 278.8 10.0587 277.236 9.48548C275.696 8.89018 274.008 8.59253 272.173 8.59253C270.361 8.59253 268.673 8.89018 267.109 9.48548C265.546 10.0587 264.187 10.8855 263.031 11.9659C261.876 13.0463 260.97 14.325 260.313 15.8023C259.678 17.2795 259.361 18.9111 259.361 20.697ZM265.444 20.697C265.444 19.33 265.716 18.1284 266.26 17.0921C266.826 16.0338 267.608 15.207 268.605 14.6117C269.624 14.0164 270.814 13.7187 272.173 13.7187C273.555 13.7187 274.744 14.0164 275.741 14.6117C276.738 15.207 277.508 16.0338 278.052 17.0921C278.596 18.1284 278.868 19.33 278.868 20.697C278.868 22.064 278.585 23.2766 278.018 24.3349C277.474 25.3712 276.693 26.187 275.673 26.7823C274.676 27.3776 273.51 27.6752 272.173 27.6752C270.814 27.6752 269.624 27.3776 268.605 26.7823C267.608 26.187 266.826 25.3712 266.26 24.3349C265.716 23.2766 265.444 22.064 265.444 20.697Z" fill="#393939"/>
<path fill-rule="evenodd" clip-rule="evenodd" d="M297.832 24.2357L302.938 32.2722H309.667L303.467 23.5395C303.683 23.4589 303.892 23.3712 304.093 23.2766C305.453 22.6372 306.483 21.7553 307.186 20.6308C307.888 19.4843 308.239 18.1725 308.239 16.6952C308.239 15.1959 307.888 13.8841 307.186 12.7596C306.483 11.6131 305.453 10.7202 304.093 10.0808C302.734 9.44138 301.035 9.12168 298.996 9.12168H290.33V32.2722H296.073V24.2357H297.832ZM296.073 13.851V19.9032H298.588C299.358 19.9032 300.015 19.793 300.559 19.5725C301.125 19.33 301.556 18.9882 301.85 18.5473C302.145 18.0843 302.292 17.5331 302.292 16.8937C302.292 16.2543 302.145 15.7141 301.85 15.2731C301.556 14.8101 301.125 14.4573 300.559 14.2148C300.015 13.9723 299.358 13.851 298.588 13.851H296.073Z" fill="#393939"/>
<path d="M126.254 8.32873L121.634 0L107.672 25.1662L107.67 25.1626L103 33.5813L107.67 42L112.291 33.6713L112.293 33.6748L121.634 16.8374L121.636 16.8338L126.256 25.1626L126.258 25.1589L130.878 33.4878L130.88 33.4841L135.501 41.8129L140.121 33.4842L140.123 33.4878L144.743 25.159L144.745 25.1626L149.366 16.8339L149.368 16.8374L154.038 8.41871L149.368 0L144.747 8.32882L144.745 8.32517L140.125 16.654L140.123 16.6503L135.503 24.9792L135.501 24.9755L135.499 24.9791L130.878 16.6503L130.876 16.6539L126.256 8.32517L126.254 8.32873Z" fill="#8D1C1C"/>
<path d="M168 33.4879L158.708 16.744L156.418 12.6282L151.678 20.8598L151.668 20.8735L151.669 20.876L147.058 29.1886L147.056 29.185L142.386 37.6037L144.721 41.813L149.342 33.4842L149.344 33.4879L154 25.0937L158.707 33.5814L158.709 33.5778L163.33 41.9066L168 33.4879Z" fill="#8D1C1C"/>
<path d="M14.3002 31.1584L7.80938 21.5013L6.38208 33.3081H0.333008L4.17315 9L14.3002 23.1218L24.4613 9L28.3015 33.3081H22.2524L20.8251 21.5013L14.3002 31.1584Z" fill="#393939"/>
<path d="M33.6581 33.3081V10.1575H39.5033V33.3081H33.6581Z" fill="#393939"/>
<path d="M46.2426 10.1575V33.3081H52.1898V23.1866L60.5497 33.3081H67.5163L57.3552 21.0052L67.0066 10.1575H60.2778L52.1898 19.2903V10.1575H46.2426Z" fill="#393939"/>
<path d="M87.5061 33.3081H71.7037V10.1575H87.5061V14.7546H77.2091V18.8886H86.8264V23.3864H77.2091V28.7111H87.5061V33.3081Z" fill="#393939"/>
</svg>
