<svg width="18" height="18" viewBox="0 0 18 18" fill="none" xmlns="http://www.w3.org/2000/svg">
<path d="M3.995 2.58333C4.05 3.39917 4.1875 4.19667 4.4075 4.9575L3.3075 6.0575C2.93167 4.9575 2.69333 3.79333 2.61083 2.58333H3.995ZM13.0333 13.6017C13.8125 13.8217 14.61 13.9592 15.4167 14.0142V15.38C14.2067 15.2975 13.0425 15.0592 11.9333 14.6925L13.0333 13.6017ZM4.875 0.75H1.66667C1.1625 0.75 0.75 1.1625 0.75 1.66667C0.75 10.2742 7.72583 17.25 16.3333 17.25C16.8375 17.25 17.25 16.8375 17.25 16.3333V13.1342C17.25 12.63 16.8375 12.2175 16.3333 12.2175C15.1967 12.2175 14.0875 12.0342 13.0608 11.695C12.9692 11.6583 12.8683 11.6492 12.7767 11.6492C12.5383 11.6492 12.3092 11.7408 12.1258 11.915L10.1092 13.9317C7.515 12.6025 5.38833 10.485 4.06833 7.89083L6.085 5.87417C6.34167 5.6175 6.415 5.26 6.31417 4.93917C5.975 3.9125 5.79167 2.8125 5.79167 1.66667C5.79167 1.1625 5.37917 0.75 4.875 0.75Z" fill="#B5B5BE"/>
</svg>
